# xmcd CD database file
#
# Track frame offsets:
#	150
#	19385
#	36880
#	58507
#	77432
#	103250
#	130920
#	154927
#	173610
#	194515
#	213110
#
# Disc length: 3151 seconds
#
# Revision: 1
# Processed by: cddbd v1.5.1PL0 Copyright (c) Steve Scherf et al.
# Submitted via: CDex 1.51
#
DISCID=8f0c4d0b
DTITLE=ARCH - TRANSIT
DYEAR=1999
DGENRE=Rock
TTITLE0=夜にかかる虹
TTITLE1=Flash back '99
TTITLE2=Close　your eyes
TTITLE3=RIDE ON
TTITLE4=鼓膜
TTITLE5=風の中に
TTITLE6=明日へと
TTITLE7=Can you hear me?
TTITLE8=ここにふたりだけ
TTITLE9=Birthday
TTITLE10=そして街の中へ
EXTD=YEAR: 1999
EXTT0=
EXTT1=
EXTT2=
EXTT3=
EXTT4=
EXTT5=
EXTT6=
EXTT7=
EXTT8=
EXTT9=
EXTT10=
PLAYORDER=
